<?xml version="1.0" encoding="UTF-8" standalone="no"?>
<!-- Created with Inkscape (http://www.inkscape.org/) -->

<svg
   width="77.934135mm"
   height="78.039223mm"
   viewBox="0 0 77.934135 78.039223"
   version="1.1"
   id="svg1"
   xml:space="preserve"
   inkscape:export-filename="cuidador.png"
   inkscape:export-xdpi="96"
   inkscape:export-ydpi="96"
   inkscape:version="1.3.2 (091e20ef0f, 2023-11-25)"
   sodipodi:docname="cuidador.svg"
   xmlns:inkscape="http://www.inkscape.org/namespaces/inkscape"
   xmlns:sodipodi="http://sodipodi.sourceforge.net/DTD/sodipodi-0.dtd"
   xmlns="http://www.w3.org/2000/svg"
   xmlns:svg="http://www.w3.org/2000/svg"><sodipodi:namedview
     id="namedview1"
     pagecolor="#ffffff"
     bordercolor="#cccccc"
     borderopacity="1"
     inkscape:showpageshadow="0"
     inkscape:pageopacity="1"
     inkscape:pagecheckerboard="0"
     inkscape:deskcolor="#d1d1d1"
     inkscape:document-units="mm"
     inkscape:zoom="0.7046647"
     inkscape:cx="17.029376"
     inkscape:cy="172.42243"
     inkscape:window-width="1920"
     inkscape:window-height="995"
     inkscape:window-x="0"
     inkscape:window-y="0"
     inkscape:window-maximized="1"
     inkscape:current-layer="layer1" /><defs
     id="defs1" /><g
     inkscape:label="Layer 1"
     inkscape:groupmode="layer"
     id="layer1"
     transform="translate(-16.219439,-106.91844)"><path
       style="fill:#3e7e45;fill-opacity:1;stroke:none;stroke-width:0.482615"
       d="m 53.506964,107.06826 c -4.097649,0.53803 -7.933706,0.90378 -11.875349,2.35757 -9.994201,3.68611 -18.041893,11.4861 -22.303524,21.21125 -8.375318,19.11268 0.837837,42.14472 19.658938,50.79586 3.499843,1.6087 7.265119,2.65764 11.072253,3.12668 3.045967,0.37526 6.26113,0.57938 9.32151,0.18188 17.883565,-2.32285 32.757908,-16.44534 34.582734,-34.69525 1.909664,-19.09839 -10.762144,-37.3367 -29.475059,-41.90414 -3.445727,-0.84103 -7.423132,-1.54108 -10.981503,-1.07385 m 14.939951,16.92883 c 0.250888,2.37261 -1.927449,4.43922 -2.495115,6.66176 -0.79659,3.11884 0.345408,6.53006 -0.390069,9.68281 -0.358052,1.53484 -0.945752,3.03446 -1.857837,4.323 -0.559206,0.79001 -1.570405,1.54872 -1.911049,2.44654 -0.345365,0.91028 -0.113598,2.22673 -0.113598,3.19043 5.086454,0.105 9.50663,3.48284 10.779716,8.42767 0.571006,2.21785 0.329481,4.62377 0.329481,6.89536 v 4.97999 c 0,0.45793 0.181777,1.45706 -0.222476,1.78413 -0.461231,0.37318 -1.763452,0.13125 -2.331364,0.13125 H 63.850006 45.590063 c -2.31747,0 -4.723755,0.2356 -7.023054,0.12257 -1.284065,-0.0631 -1.021537,-1.18504 -1.021537,-2.16565 v -6.51229 c 0,-2.09307 -0.07584,-4.11624 0.597864,-6.12921 1.495358,-4.46795 5.818982,-7.49498 10.511333,-7.53382 0,-0.94309 0.250762,-2.30321 -0.07705,-3.1923 -0.317605,-0.86142 -1.362877,-1.67244 -1.917942,-2.42615 -0.904652,-1.22841 -1.512279,-2.73473 -1.867788,-4.21383 -0.777001,-3.23271 0.387559,-6.635 -0.41155,-9.83227 -0.372376,-1.4899 -1.342809,-3.08324 -2.015483,-4.46922 -0.24637,-0.50762 -0.767112,-1.412 -0.346619,-1.968 0.383472,-0.50705 1.59597,-0.49349 2.167212,-0.63964 1.869811,-0.47839 3.729877,-0.99424 5.490756,-1.80266 2.235546,-1.02634 3.891369,-2.70067 6.512288,-2.33067 1.363341,0.19246 2.497429,1.3791 3.703064,1.98208 2.495034,1.24783 5.750215,2.44446 8.555357,2.58812 m -25.027616,1.14923 2.043074,4.46922 h 19.40917 l 2.043069,-4.46922 c -2.51553,-0.62141 -5.059187,-1.22356 -7.40613,-2.36368 -1.351259,-0.65643 -2.793685,-2.10436 -4.341525,-2.10436 -1.5446,0 -2.992532,1.44899 -4.341524,2.10436 -2.35533,1.14427 -4.882047,1.74017 -7.406134,2.36368 m 2.298454,5.87383 c 0,0.78617 -0.241872,2.04302 0.07705,2.76774 0.384736,0.87428 1.956444,1.72251 2.732176,2.23303 3.89219,2.56154 8.45898,2.83596 12.514299,0.45244 0.978275,-0.57498 3.021972,-1.60412 3.497835,-2.68547 0.318922,-0.72472 0.07704,-1.98156 0.07704,-2.76774 H 45.717753 m 0.255386,4.97999 c -0.150653,3.50879 0.454102,6.6941 3.02076,9.31638 4.264866,4.35729 11.20509,2.67704 14.058629,-2.31836 1.297327,-2.2711 1.31517,-4.48521 1.308249,-6.99802 -1.83234,0.76254 -3.316478,2.17561 -5.23537,2.88351 -3.336562,1.23088 -6.857712,0.68464 -9.958099,-0.90429 -1.114682,-0.57127 -2.064811,-1.45683 -3.194169,-1.97922 m 14.301495,11.74765 c -2.874716,2.59652 -7.133536,1.33458 -10.215352,0.12769 l 0.06512,3.02313 1.254457,1.72453 3.532709,4.82924 c 0.938054,-0.28781 1.667768,-1.67099 2.236585,-2.4362 1.634742,-2.1992 4.030531,-4.2665 3.126477,-7.26839 M 38.950085,171.2431 h 4.213833 v -5.10767 c 9.65e-4,-0.51703 0.01458,-1.45112 0.759747,-1.45112 0.672076,0 0.642569,1.00246 0.644765,1.45112 0.0083,1.70247 9.6e-5,3.40518 9.6e-5,5.10767 h 21.196859 c 0,-1.70249 -0.0082,-3.4052 1.01e-4,-5.10767 0.0024,-0.44723 -0.02741,-1.45112 0.643389,-1.45112 0.720655,0 0.758372,0.94798 0.761026,1.45112 0.009,1.70245 9.7e-5,3.40519 9.7e-5,5.10767 h 4.213833 c 0,-6.11434 1.51018,-13.95436 -4.376108,-17.87677 -1.261551,-0.84065 -3.853841,-2.14164 -5.43262,-1.58767 -0.587733,0.20622 -0.954907,0.9684 -1.332978,1.4185 -1.201514,1.43043 -2.202197,3.01913 -3.411626,4.44498 -0.376185,0.4435 -0.999874,1.75112 -1.665318,1.74306 -0.704126,-0.009 -1.465446,-1.43132 -1.821578,-1.93233 -0.977358,-1.37498 -2.057798,-2.67952 -3.068351,-4.03245 -0.392791,-0.52586 -0.852578,-1.41707 -1.516439,-1.64038 -1.689008,-0.56814 -4.319531,0.78524 -5.648692,1.72029 -5.647186,3.97273 -4.160036,11.7284 -4.160036,17.74277 z"
       id="path1" /></g></svg>
