<?xml version="1.0" encoding="UTF-8" standalone="no"?>
<!-- Created with Inkscape (http://www.inkscape.org/) -->

<svg
   width="262.34683mm"
   height="262.43082mm"
   viewBox="0 0 262.34683 262.43082"
   version="1.1"
   id="svg1"
   xml:space="preserve"
   inkscape:version="1.3.2 (091e20ef0f, 2023-11-25)"
   sodipodi:docname="funcionario.svg"
   inkscape:export-filename="funcionarioGrey.png"
   inkscape:export-xdpi="96"
   inkscape:export-ydpi="96"
   xmlns:inkscape="http://www.inkscape.org/namespaces/inkscape"
   xmlns:sodipodi="http://sodipodi.sourceforge.net/DTD/sodipodi-0.dtd"
   xmlns="http://www.w3.org/2000/svg"
   xmlns:svg="http://www.w3.org/2000/svg"><sodipodi:namedview
     id="namedview1"
     pagecolor="#ffffff"
     bordercolor="#cccccc"
     borderopacity="1"
     inkscape:showpageshadow="0"
     inkscape:pageopacity="1"
     inkscape:pagecheckerboard="0"
     inkscape:deskcolor="#d1d1d1"
     inkscape:document-units="mm"
     inkscape:zoom="0.7046647"
     inkscape:cx="453.40713"
     inkscape:cy="476.11296"
     inkscape:window-width="1920"
     inkscape:window-height="995"
     inkscape:window-x="0"
     inkscape:window-y="0"
     inkscape:window-maximized="1"
     inkscape:current-layer="layer1" /><defs
     id="defs1" /><g
     inkscape:label="Layer 1"
     inkscape:groupmode="layer"
     id="layer1"
     transform="translate(-135.56985,-105.41113)"><path
       style="fill:#545775;fill-opacity:1"
       d="m 165.16644,367.45472 c -5.72482,-1.38789 -10.71753,-6.39305 -12.24073,-12.27127 -0.58436,-2.25515 -0.5443,-4.50001 0.38993,-21.84597 0.4389,-8.14917 1.15631,-21.72229 1.59425,-30.1625 0.43794,-8.44021 1.03282,-19.74317 1.32196,-25.1177 0.28913,-5.37453 0.5257,-10.22632 0.5257,-10.78177 v -1.0099 h -3.384 c -4.02012,0 -5.66379,-0.35781 -8.76359,-1.90772 -3.9961,-1.99806 -6.93057,-5.55859 -8.40324,-10.19607 l -0.63687,-2.00552 0.0934,-23.83545 0.0934,-23.83545 0.68033,-2.91041 c 1.6955,-7.25326 4.16246,-12.62088 8.36411,-18.19861 5.5668,-7.38998 13.04333,-12.90089 21.82332,-16.08584 l 3.1199,-1.13175 -2.63461,-2.53253 c -3.10051,-2.98038 -4.8622,-5.36041 -6.82034,-9.21422 -2.53093,-4.98111 -3.50809,-9.14653 -3.52214,-15.01413 -0.0123,-5.1389 0.57473,-8.36586 2.31034,-12.7 3.51895,-8.78746 10.17169,-15.43924 18.97902,-18.97628 2.746,-1.1028 3.84946,-1.41625 6.8362,-1.94188 2.50575,-0.44099 8.52967,-0.49876 11.02318,-0.10572 2.27962,0.35933 6.14291,1.46823 7.87919,2.26161 0.7683,0.35107 1.46071,0.63831 1.53869,0.63831 0.19933,0 4.70852,2.6713 4.86962,2.88483 0.0728,0.0964 0.74245,0.61708 1.4882,1.157 1.53586,1.11193 5.20116,4.88642 6.40449,6.59527 2.57103,3.65112 4.391,7.55201 5.50169,11.79217 1.01045,3.85752 1.18418,10.39877 0.38668,14.55984 -1.37836,7.19184 -4.86708,13.51502 -10.21989,18.52315 l -2.26136,2.11575 2.19436,0.72414 c 2.92939,0.96671 8.10373,3.43256 10.5403,5.02304 2.88272,1.88169 4.06189,2.8147 6.91274,5.46963 7.57648,7.05581 12.55059,16.55141 14.11048,26.93702 0.59061,3.93225 0.58166,46.67123 -0.0103,49.18254 -1.03534,4.39226 -4.51163,8.70748 -8.85201,10.98829 -2.4998,1.3136 -4.55021,1.73046 -8.53444,1.73508 l -3.37343,0.004 0.0139,1.25677 c 0.008,0.69122 0.99646,19.87432 2.19741,42.6291 1.57667,29.87391 2.12281,41.88075 1.96505,43.20167 -0.77202,6.46399 -6.28386,12.60026 -12.67028,14.10567 -2.12588,0.50111 -5.91473,0.5121 -8.21845,0.0238 -4.62193,-0.9796 -8.95497,-4.41717 -11.20854,-8.89217 -1.50691,-2.99232 -1.3634,-1.99257 -4.09985,-28.5603 -0.42717,-4.14735 -0.89552,-8.61219 -1.04078,-9.92188 -0.14525,-1.30968 -0.34167,-3.24445 -0.43649,-4.29948 -0.0948,-1.05502 -0.25486,-1.91822 -0.35565,-1.91822 -0.10078,0 -0.38393,1.99429 -0.62922,4.43177 -0.24528,2.43747 -0.56651,5.56286 -0.71384,6.94531 -0.14733,1.38245 -0.56459,5.37104 -0.92725,8.86354 -0.36266,3.4925 -0.7752,7.42156 -0.91676,8.73125 -0.14157,1.30969 -0.38672,3.75047 -0.54478,5.42396 -0.5059,5.35612 -0.98663,7.62626 -2.10108,9.92187 -2.26194,4.65925 -6.69311,8.2909 -11.30987,9.26924 -2.23069,0.4727 -6.33029,0.46146 -8.32793,-0.0228 z m 6.71399,-8.61358 c 2.28681,-0.5746 4.83131,-3.10287 5.5159,-5.48071 0.15406,-0.53512 0.56919,-3.71139 0.92251,-7.05837 0.35331,-3.34698 0.76865,-7.27604 0.92297,-8.73125 0.15432,-1.45521 0.5772,-5.50333 0.93974,-8.99583 0.36254,-3.4925 0.77921,-7.48109 0.92594,-8.86354 0.14673,-1.38245 0.56345,-5.37104 0.92604,-8.86354 0.36259,-3.4925 0.77931,-7.4811 0.92604,-8.86354 0.14673,-1.38245 0.56351,-5.37105 0.92616,-8.86355 0.36266,-3.4925 0.77472,-7.42156 0.9157,-8.73125 0.14098,-1.30968 0.37914,-3.69093 0.52924,-5.29166 0.15009,-1.60073 0.32801,-3.23784 0.39536,-3.63802 l 0.12245,-0.72761 h -3.96213 -3.96214 v -4.23333 -4.23333 h 12.7 12.7 v 4.23333 4.23333 h -3.98074 -3.98074 l 0.14489,0.8599 c 0.0797,0.47294 0.73854,6.63443 1.46412,13.69219 1.23028,11.96692 1.49485,14.51231 2.11758,20.37291 0.13144,1.23693 0.35806,3.38005 0.5036,4.7625 0.14554,1.38245 0.39139,3.70417 0.54633,5.15938 0.73164,6.87159 2.1799,20.75908 2.7839,26.69491 0.78795,7.74374 1.15538,8.91541 3.41593,10.89288 3.73196,3.26463 9.47989,2.5237 12.26122,-1.58053 1.09353,-1.61366 1.49234,-3.03132 1.45395,-5.16843 -0.0495,-2.75571 -5.10147,-99.28263 -5.24556,-100.22581 l -0.13137,-0.85989 h -24.04888 -24.04889 l -0.13708,1.12447 c -0.0754,0.61847 -0.50418,8.32776 -0.95286,17.13177 -0.44868,8.80401 -0.98853,19.22198 -1.19966,23.15104 -0.21113,3.92907 -0.80299,15.18047 -1.31525,25.00313 -0.51225,9.82265 -1.10789,21.01453 -1.32363,24.87083 -0.54702,9.77794 -0.52418,11.54276 0.17358,13.40769 0.60376,1.61369 2.59394,3.84611 3.90254,4.37755 2.26895,0.92146 3.80659,1.03201 6.15324,0.44238 z m -14.4828,-103.22501 c 0.14921,-2.05601 1.09297,-19.98721 2.73137,-51.89529 l 0.71854,-13.99373 2.91594,0.16805 c 1.60377,0.0924 3.55868,0.16859 4.34424,0.16925 l 1.4283,0.001 -0.18274,4.0349 c -0.10051,2.21919 -0.59492,11.89302 -1.09869,21.49739 -0.50377,9.60438 -0.97977,18.77219 -1.05776,20.37292 -0.078,1.60073 -0.19796,3.3569 -0.26659,3.9026 l -0.12478,0.99219 h 7.23614 7.23614 l -0.33317,-2.18281 c -0.37727,-2.47167 -0.67772,-4.37065 -2.22914,-14.08907 -0.604,-3.78354 -1.25726,-7.89119 -1.45171,-9.12812 -1.13986,-7.25111 -3.39886,-21.51476 -3.85509,-24.34167 -0.95627,-5.92526 -1.29023,-8.0161 -1.83831,-11.50937 -0.29681,-1.89177 -0.59775,-3.70557 -0.66874,-4.03066 l -0.12907,-0.59108 -2.09442,0.76436 c -1.15193,0.42041 -3.28224,1.43105 -4.73402,2.24587 -11.17436,6.27172 -18.44128,17.362 -19.60636,29.92193 -0.16268,1.75368 -0.24571,10.90241 -0.20893,23.01874 l 0.0611,20.10834 0.70061,1.49435 c 0.81842,1.74565 2.38383,3.4056 3.97919,4.21949 1.34563,0.68649 2.98006,0.95539 6.07822,1.00002 l 2.29135,0.033 z m 73.75588,1.67273 c 2.36671,-0.72538 4.83087,-3.23123 5.57038,-5.66461 0.489,-1.6091 0.48138,-42.47352 -0.009,-45.68364 -2.08636,-13.67101 -11.29072,-25.19468 -24.09517,-30.16666 -1.08622,-0.42178 -2.07436,-0.70543 -2.19588,-0.63032 -0.12152,0.0751 -0.22094,0.45687 -0.22094,0.84838 0,0.39151 -0.23534,2.08113 -0.52297,3.7547 -0.28764,1.67357 -1.24527,7.62677 -2.12808,13.22932 -0.88281,5.60255 -1.8381,11.64497 -2.12286,13.4276 -0.49516,3.09967 -0.95951,6.01584 -2.11704,13.29531 -0.28924,1.81901 -0.64113,4.02167 -0.78197,4.89479 -0.14084,0.87313 -0.49766,3.13532 -0.79293,5.02709 -0.29528,1.89177 -0.77654,4.92786 -1.06949,6.74687 -0.29294,1.81901 -0.57253,3.57518 -0.62132,3.90261 l -0.0887,0.59531 h 7.24248 7.24247 l -0.12979,-0.99219 c -0.21392,-1.63535 -2.63102,-49.52306 -2.50572,-49.64356 0.0637,-0.0612 2.02166,-0.19665 4.35113,-0.301 l 4.23542,-0.18971 1.67265,32.11166 c 0.91995,17.66142 1.74134,32.98889 1.82531,34.06104 l 0.15266,1.94936 3.0674,-0.1369 c 1.68707,-0.0753 3.50574,-0.27124 4.04149,-0.43545 z m -39.65797,-19.00294 c 0.23886,-1.41883 0.67779,-4.1275 0.9754,-6.01927 0.29762,-1.89177 0.71522,-4.51114 0.92801,-5.82083 0.21279,-1.30969 0.62308,-3.86953 0.91176,-5.68854 0.28867,-1.81901 1.18465,-7.45104 1.99106,-12.51561 0.8064,-5.06457 1.46619,-9.32105 1.46619,-9.45885 0,-0.15148 -2.82456,-0.25054 -7.14375,-0.25054 -5.87353,0 -7.14375,0.0645 -7.14375,0.3626 0,0.19943 0.23539,1.77701 0.52309,3.50573 0.2877,1.72872 0.70215,4.27422 0.92102,5.65667 0.21886,1.38245 0.63493,4.00182 0.9246,5.82083 0.28966,1.81901 0.77061,4.8551 1.06876,6.74687 0.29815,1.89178 0.71343,4.51115 0.92283,5.82084 0.20941,1.30969 0.68447,4.28625 1.05571,6.61458 0.37123,2.32833 0.80354,5.03701 0.96068,6.01927 0.22542,1.4091 0.3826,1.78594 0.74491,1.78594 0.37479,0 0.53903,-0.47422 0.89348,-2.57969 z m 7.90055,-49.54322 c 0.0986,-0.65485 0.42744,-2.73844 0.73071,-4.63021 1.30965,-8.1693 1.6333,-10.51587 1.47258,-10.67678 -0.20858,-0.20885 -19.37468,-0.31735 -20.99493,-0.11886 l -1.15622,0.14165 0.16175,1.09366 c 0.089,0.60151 0.33153,2.16522 0.53906,3.47491 0.20752,1.30969 0.69222,4.40531 1.07711,6.87917 0.38489,2.47385 0.7488,4.64839 0.8087,4.83232 0.0854,0.26225 1.95071,0.31934 8.64542,0.26458 l 8.53652,-0.0698 z m -5.39844,-24.49012 c 3.18544,-0.31083 7.79744,-2.06938 10.97902,-4.1863 1.84177,-1.22544 5.03306,-4.41444 6.34357,-6.33899 6.80846,-9.9986 5.81943,-23.08373 -2.40181,-31.77648 -1.17714,-1.24465 -4.60634,-4.11644 -4.91544,-4.11644 -0.0695,0 -0.75664,-0.37316 -1.52703,-0.82924 -4.68392,-2.77294 -12.33465,-3.71937 -17.90373,-2.21477 -3.53714,0.95562 -5.82228,1.98418 -8.18038,3.68202 -7.08158,5.09877 -10.88864,12.23828 -10.89899,20.43923 -0.006,4.94097 0.98456,8.96897 3.10148,12.60876 3.44801,5.92842 8.45473,9.94047 14.89036,11.93215 3.54372,1.09669 5.75128,1.26469 10.51295,0.80006 z m 42.13524,195.89017 c 2e-4,-0.19082 0.72096,-4.276 1.60171,-9.07819 0.88075,-4.80219 1.83568,-10.04094 2.12208,-11.64166 0.28639,-1.60073 0.7502,-4.16058 1.03069,-5.68855 0.28048,-1.52796 0.70197,-3.84968 0.93664,-5.15937 0.23467,-1.30969 1.08397,-5.95313 1.88732,-10.31875 0.80336,-4.36562 1.58261,-8.77094 1.73167,-9.78958 l 0.27102,-1.85209 47.6619,-47.69114 47.6619,-47.69114 h -13.82347 -13.82348 v -4.23334 -4.23333 h 18.84227 18.84226 l 2.13069,-1.04095 c 8.68486,-4.243 19.10538,-4.28354 27.49534,-0.10696 4.23599,2.10871 8.50562,5.67099 11.29159,9.42093 2.08798,2.81044 4.27462,7.35637 5.18384,10.77698 0.68763,2.58698 0.73853,3.1331 0.7398,7.9375 0.001,5.45949 -0.069,5.92663 -1.59961,10.60857 -0.82103,2.51144 -2.84587,6.07725 -5.01881,8.8383 -0.9162,1.16417 -24.04561,24.48699 -51.39868,51.8285 l -49.73287,49.71182 -25.7603,4.68676 c -30.04464,5.46624 -28.27396,5.17091 -28.2735,4.71569 z m 16.40382,-11.41889 c 1.96453,-0.35833 7.26281,-1.32138 11.77396,-2.14011 10.73283,-1.9479 15.01645,-2.73436 16.83049,-3.09004 l 1.48467,-0.29109 -0.90331,-3.60965 c -0.49682,-1.98531 -1.02068,-4.05614 -1.16414,-4.60185 l -0.26082,-0.99218 h -8.85334 -8.85334 v -8.85335 -8.85334 l -0.99219,-0.26082 c -0.54571,-0.14345 -2.61704,-0.66744 -4.60297,-1.16442 l -3.61078,-0.90359 -0.55284,2.94015 c -0.646,3.4356 -1.02318,5.49259 -3.353,18.28599 -2.29736,12.6151 -2.48805,13.6951 -2.49377,14.1239 -0.006,0.41705 0.0857,0.40736 5.55138,-0.5896 z m 94.78643,-80.40691 -6.41587,-6.41587 -31.75068,31.74945 -31.75067,31.74945 4.88697,0.072 4.88696,0.0719 0.25974,0.98638 c 0.14286,0.54251 0.80546,3.18904 1.47245,5.88118 0.66699,2.69213 1.27391,5.06778 1.3487,5.27922 0.0895,0.25301 10.9636,-10.44317 31.80713,-31.2867 l 31.67114,-31.67114 z m -19.05,-19.05 -6.41587,-6.41587 -31.61116,31.61034 c -17.38615,17.38568 -31.52476,31.6861 -31.41914,31.77871 0.10562,0.0926 2.45422,0.72648 5.21911,1.4086 2.7649,0.68213 5.47357,1.35816 6.01927,1.50229 l 0.99219,0.26206 v 4.95061 4.9506 l 31.81574,-31.81574 31.81573,-31.81573 z m 34.99362,15.93839 3.16865,-3.17693 -15.9384,-15.9384 -15.9384,-15.9384 -3.24059,3.24059 -3.2406,3.2406 15.87309,15.87474 c 8.73019,8.7311 15.93485,15.87473 16.01034,15.87473 0.0755,0 1.56315,-1.42962 3.30591,-3.17693 z m 15.62978,-15.67482 c 6.33742,-6.429 7.34902,-7.74248 8.91501,-11.57533 4.05308,-9.92017 0.27729,-21.45515 -8.93631,-27.30026 -3.65319,-2.31759 -7.54522,-3.42315 -12.05088,-3.42315 -3.13809,0 -5.28884,0.41445 -8.42304,1.62312 -3.4607,1.33459 -5.06167,2.58579 -11.54066,9.01936 l -6.08541,6.04275 15.87417,15.88263 c 8.73079,8.73545 15.94366,15.88263 16.02859,15.88263 0.0849,0 2.88327,-2.76828 6.21853,-6.15175 z M 254.12421,190.06561 v -21.16666 h 21.16666 21.16667 v 21.16666 21.16667 h -21.16667 -21.16666 z m 33.86666,0 v -12.7 h -12.7 -12.69999 v 12.7 12.7 h 12.69999 12.7 z m 25.4,0 v -4.23333 h 25.4 25.4 v 4.23333 4.23333 h -25.4 -25.4 z m 0,-16.93333 v -4.23333 h 25.4 25.4 v 4.23333 4.23333 h -25.4 -25.4 z m 0,-16.93333 v -4.23334 h 16.93334 16.93333 v 4.23334 4.23333 h -16.93333 -16.93334 z m 42.33333,0 v -4.23334 h 4.23334 4.23333 v 4.23334 4.23333 h -4.23333 -4.23334 z m -86.25458,-12.56813 -5.68434,-5.68896 2.97304,-2.97304 2.97304,-2.97304 2.80341,2.77502 2.8034,2.77502 15.38833,-15.5509 15.38833,-15.5509 3.11798,3.12861 3.11798,3.12861 -18.50456,18.30927 c -10.17751,10.0701 -18.5468,18.30927 -18.59841,18.30927 -0.0516,0 -2.65181,-2.56003 -5.7782,-5.68896 z m 43.92125,-4.36521 v -4.23333 h 25.4 25.4 v 4.23333 4.23334 h -25.4 -25.4 z m 0,-16.93333 v -4.23333 h 25.4 25.4 v 4.23333 4.23333 h -25.4 -25.4 z"
       id="path1" /></g></svg>
