<?xml version="1.0" encoding="UTF-8" standalone="no"?>
<!-- Created with Inkscape (http://www.inkscape.org/) -->

<svg
   width="96.547218mm"
   height="96.674248mm"
   viewBox="0 0 96.547218 96.674248"
   version="1.1"
   id="svg1"
   xml:space="preserve"
   inkscape:export-filename="userRed.png"
   inkscape:export-xdpi="96"
   inkscape:export-ydpi="96"
   inkscape:version="1.3.2 (091e20ef0f, 2023-11-25)"
   sodipodi:docname="home1.svg"
   xmlns:inkscape="http://www.inkscape.org/namespaces/inkscape"
   xmlns:sodipodi="http://sodipodi.sourceforge.net/DTD/sodipodi-0.dtd"
   xmlns="http://www.w3.org/2000/svg"
   xmlns:svg="http://www.w3.org/2000/svg"><sodipodi:namedview
     id="namedview1"
     pagecolor="#ffffff"
     bordercolor="#cccccc"
     borderopacity="1"
     inkscape:showpageshadow="0"
     inkscape:pageopacity="1"
     inkscape:pagecheckerboard="0"
     inkscape:deskcolor="#d1d1d1"
     inkscape:document-units="mm"
     inkscape:zoom="0.7046647"
     inkscape:cx="-109.27183"
     inkscape:cy="104.30493"
     inkscape:window-width="1920"
     inkscape:window-height="995"
     inkscape:window-x="0"
     inkscape:window-y="0"
     inkscape:window-maximized="1"
     inkscape:current-layer="layer1" /><defs
     id="defs1" /><g
     inkscape:label="Layer 1"
     inkscape:groupmode="layer"
     id="layer1"
     transform="translate(-27.284987,-11.740276)"><path
       style="fill:#d52b1e;fill-opacity:1;stroke-width:1.55714"
       d="m 68.932626,106.87667 c -3.229793,-0.4963 -3.120354,-0.39498 -2.250792,-2.08371 5.011669,-9.732874 16.381765,-23.67394 21.605777,-26.491202 l 2.25931,-1.218424 2.059962,0.01012 2.059953,0.01012 2.12764,1.09439 c 3.388944,1.743167 9.610284,8.010411 12.725494,12.819382 l 0.7756,1.19729 -2.66203,2.448389 C 97.384889,104.08906 82.127444,108.9042 68.932626,106.87665 Z m -9.491084,-2.3879 C 50.946124,101.31923 43.310957,95.812913 38.198254,89.168571 35.926287,86.215982 35.905046,86.474599 38.694177,83.130659 44.867754,75.72905 49.790935,72.310328 54.276156,72.310328 h 2.149836 l 2.522044,1.260278 c 3.773518,1.885652 10.905724,8.95855 14.378994,14.259431 l 0.631488,0.963772 -1.652498,2.161053 c -2.019984,2.64163 -5.593297,8.200545 -7.678887,11.945858 -0.85172,1.5295 -1.671672,2.77193 -1.822117,2.7609 -0.15045,-0.0111 -1.664006,-0.5388 -3.363474,-1.17285 z m 51.307818,-16.412398 -1.04484,-1.537607 -0.007,-11.749126 c -0.007,-11.931701 -0.0578,-12.428843 -1.33265,-12.899225 l -0.72091,-0.266012 V 51.611006 41.597611 l -3.29595,-3.276604 -3.29592,-3.276604 v -2.378617 -2.378618 h 1.44198 1.44196 v -1.235975 -1.235976 h -1.44196 -1.44198 v -1.02998 -1.029979 h -1.23597 -1.235974 v 1.003878 1.003875 l -1.338977,0.129101 -1.338978,0.129102 v 1.02998 1.029979 l 1.338978,0.129102 1.338977,0.129102 v 2.352516 2.352514 l -3.295937,3.276603 -3.295937,3.276603 V 51.61101 61.624405 l -0.720986,0.266012 c -1.226041,0.452357 -1.326164,0.975151 -1.332663,6.958488 l -0.0063,5.808387 -1.54497,0.647657 c -0.849733,0.356213 -2.147506,1.051429 -2.883942,1.544925 l -1.338973,0.897266 v -0.598617 c 0,-7.903737 -2.334396,-21.326512 -5.135125,-29.526963 l -1.04482,-3.059203 0.588053,-0.897485 c 0.960337,-1.465657 1.129899,-3.547474 0.485592,-5.961848 l -0.604698,-2.265957 1.186651,-1.235975 c 0.652659,-0.679786 1.458838,-1.888627 1.791509,-2.686311 0.332671,-0.797683 0.990954,-1.799749 1.462852,-2.22681 l 0.857995,-0.776474 -0.0016,-2.923088 -0.0016,-2.923086 -0.757807,-1.242646 c -2.105911,-3.453955 -4.320399,-4.724239 -6.59684,-3.784351 -0.824817,0.340545 -2.383901,0.932407 -3.464633,1.315249 l -1.964966,0.696075 -2.8061,2.575156 -2.8061,2.575157 -2.101619,0.248904 c -3.124749,0.370081 -9.280967,3.975453 -10.418978,6.101846 l -0.392906,0.73415 0.443944,2.070035 c 0.569841,2.657077 1.757136,4.37832 4.156011,6.025052 l 1.919925,1.317949 4.773892,-0.04648 4.773891,-0.04648 1.452044,1.737226 1.452041,1.737228 1.991516,0.707323 1.991516,0.707324 0.872089,2.682329 c 1.062559,3.268164 1.064311,3.266105 -1.792993,2.106411 l -2.305335,-0.935666 -0.381696,0.381696 -0.381696,0.381695 0.666656,2.343459 c 0.392434,1.379504 1.263716,3.04099 2.118163,4.039219 l 1.451508,1.695761 1.585469,-0.151198 1.585469,-0.151197 0.168593,0.629012 c 0.391915,1.462213 0.692635,3.992487 1.461798,12.29964 l 0.813563,8.786687 -2.56238,3.021734 c -3.151834,3.716862 -3.069661,3.709599 -3.062812,0.270786 0.0066,-3.251209 -0.207257,-3.768235 -1.557736,-3.768235 H 73.089557 L 72.960454,78.389005 72.831352,77.051835 71.598825,76.840588 70.366298,76.629341 70.153736,75.396815 69.941177,74.164288 68.502322,73.958292 67.063467,73.752296 66.85747,71.280345 66.651476,68.808394 61.501578,68.697342 56.351681,68.586267 55.836691,67.8976 c -0.533962,-0.71404 -0.683936,-3.773164 -0.262094,-5.346168 0.140921,-0.525492 0.781484,-1.089255 1.53681,-1.352562 2.262341,-0.788658 4.244017,-2.45635 5.363984,-4.514101 1.878856,-3.452074 1.599351,-3.738061 -3.653329,-3.738061 h -3.43611 l 0.09034,-1.183885 c 0.05287,-0.692855 0.555377,-1.589967 1.211555,-2.162956 l 1.121216,-0.979072 0.482355,-2.33567 0.482357,-2.33567 -0.540508,-0.65127 -0.540506,-0.65127 h -7.537705 c -4.145739,0 -7.830964,0.112534 -8.18939,0.250074 l -0.651682,0.250075 v 2.036339 c 0,2.342867 0.857393,4.291687 2.05544,4.671934 l 0.828502,0.262955 v 1.398748 1.398748 l -3.810924,0.118452 -3.810925,0.118451 -0.127513,0.895351 c -0.325839,2.28802 3.117703,6.285237 6.219919,7.220001 l 1.560502,0.470213 -0.118528,3.329065 -0.11853,3.329065 -5.561888,0.205996 -5.561889,0.205995 -0.122656,2.574949 -0.122655,2.574948 H 31.422481 30.222044 L 29.812426,72.413326 C 22.750658,45.768122 39.059849,19.429335 66.239407,13.584992 l 3.295935,-0.708716 5.561888,-0.02813 5.561889,-0.02812 3.685061,0.728028 c 21.64459,4.276134 36.77972,21.730821 38.35412,44.232099 l 0.25276,3.612384 -0.61943,4.53191 c -1.04452,7.641921 -3.99496,15.324695 -8.17202,21.279512 -1.99506,2.844151 -2.05924,2.860574 -3.41025,0.872405 z M 98.374768,50.119069 97.138783,49.853171 97.011645,48.542236 c -0.06992,-0.721015 0.166579,-1.878932 0.525571,-2.573147 l 0.65272,-1.26221 h 1.35264 c 0.743964,0 1.684994,0.24302 2.091204,0.540044 l 0.73856,0.540043 0.2117,1.878219 c 0.11644,1.03302 0.0512,1.973274 -0.14482,2.089453 -0.72636,0.430367 -2.866141,0.622226 -4.064441,0.364431 z m -40.126393,-12.891891 -1.675743,-1.232355 -0.481894,-1.60842 -0.481895,-1.60842 1.813352,-1.658624 c 2.334202,-2.135035 3.669161,-2.747399 7.18572,-3.296184 l 2.867468,-0.44749 2.265955,-2.45894 c 2.229718,-2.419618 4.399096,-3.693396 6.290241,-3.693396 0.528446,0 1.195151,-0.231746 1.481562,-0.51499 l 0.520749,-0.514989 1.415613,1.538918 1.415613,1.538919 v 2.018626 2.018626 l -1.029981,0.674868 c -0.5945,0.389532 -1.02998,1.067575 -1.02998,1.603681 0,1.341065 -1.134058,2.760118 -2.205792,2.760118 h -0.923092 l -1.422498,2.162958 -1.422497,2.162956 H 70.204478 67.57768 l -0.616391,0.926982 -0.616389,0.92698 h -1.212808 c -0.667046,0 -1.584555,-0.198952 -2.03891,-0.442115 l -0.826099,-0.442114 -1.171482,0.40838 -1.171482,0.408381 z"
       id="path1" /></g></svg>
