<?xml version="1.0" encoding="UTF-8" standalone="no"?>
<!-- Created with Inkscape (http://www.inkscape.org/) -->

<svg
   width="96.547218mm"
   height="96.674248mm"
   viewBox="0 0 96.547218 96.674248"
   version="1.1"
   id="svg1"
   xml:space="preserve"
   inkscape:export-filename="userRed.png"
   inkscape:export-xdpi="96"
   inkscape:export-ydpi="96"
   inkscape:version="1.3.2 (091e20ef0f, 2023-11-25)"
   sodipodi:docname="user1.svg"
   xmlns:inkscape="http://www.inkscape.org/namespaces/inkscape"
   xmlns:sodipodi="http://sodipodi.sourceforge.net/DTD/sodipodi-0.dtd"
   xmlns="http://www.w3.org/2000/svg"
   xmlns:svg="http://www.w3.org/2000/svg"><sodipodi:namedview
     id="namedview1"
     pagecolor="#ffffff"
     bordercolor="#cccccc"
     borderopacity="1"
     inkscape:showpageshadow="0"
     inkscape:pageopacity="1"
     inkscape:pagecheckerboard="0"
     inkscape:deskcolor="#d1d1d1"
     inkscape:document-units="mm"
     inkscape:zoom="0.7046647"
     inkscape:cx="18.44849"
     inkscape:cy="-107.14316"
     inkscape:window-width="1920"
     inkscape:window-height="995"
     inkscape:window-x="0"
     inkscape:window-y="0"
     inkscape:window-maximized="1"
     inkscape:current-layer="layer1" /><defs
     id="defs1" /><g
     inkscape:label="Layer 1"
     inkscape:groupmode="layer"
     id="layer1"
     transform="translate(-27.284987,-11.740276)"><path
       style="fill:#d52b1e;fill-opacity:1"
       d="m 70.721169,108.17282 c -8.06763,-0.84331 -16.58239,-4.03283 -23.03807,-8.629781 -2.81134,-2.00189 -7.46456,-6.36263 -9.62494,-9.01994 -10.25967,-12.61969 -13.43693,-29.63045 -8.4707,-45.35135 3.27072,-10.35365 10.96955,-20.21852 20.33558,-26.05691 18.88152,-11.7699498 43.1644,-9.2517798 59.093901,6.12812 8.26593,7.98075 13.19963,17.89265 14.6085,29.34876 0.40527,3.29544 0.18806,10.52385 -0.41862,13.93145 -2.31684,13.01304 -10.17741,24.83799 -21.35328,32.122501 -9.000251,5.86643 -20.476091,8.64104 -31.132371,7.52715 z m 11.3886,-10.001471 c 8.48836,-1.45386 16.16347,-5.61443 21.958201,-11.90321 l 1.84444,-2.0017 -0.72571,-0.57867 c -1.5083,-1.20267 -6.502061,-3.8647 -9.655181,-5.14688 -6.9797,-2.83823 -13.87809,-4.07896 -21.3991,-3.8488 -6.85311,0.20971 -12.83753,1.47014 -18.86988,3.97432 -2.85337,1.18451 -7.90518,3.92271 -9.26358,5.02108 l -0.71531,0.57839 1.87302,2.04497 c 4.52533,4.94077 11.04429,8.98816 17.58304,10.91667 5.06537,1.49396 11.96824,1.86903 17.37006,0.94383 z m -2.54284,-33.75185 c 4.65884,-1.18028 8.77313,-4.37891 10.88701,-8.46404 1.47572,-2.85187 2.00104,-4.98508 1.98728,-8.06979 -0.0212,-4.75532 -1.57715,-8.40271 -5.07964,-11.90764 -3.24897,-3.25123 -7.13728,-4.85437 -11.77395,-4.85437 -4.71095,0 -8.51875,1.59251 -11.9147,4.98301 -3.31709,3.31178 -4.92592,7.14985 -4.93296,11.7682 -0.0121,7.91383 5.05262,14.47889 12.74661,16.52274 1.93035,0.51278 6.09811,0.52407 8.08035,0.0219 z"
       id="path1" /></g></svg>
